<?xml version="1.0" encoding="iso-8859-1"?>
<!-- Generator: Adobe Illustrator 19.0.0, SVG Export Plug-In . SVG Version: 6.00 Build 0)  -->
<svg version="1.1" id="Layer_1" xmlns="http://www.w3.org/2000/svg" xmlns:xlink="http://www.w3.org/1999/xlink" x="0px" y="0px"
	 viewBox="0 0 512.002 512.002" style="enable-background:new 0 0 512.002 512.002;" xml:space="preserve">
<g>
	<g>
		<g>
			<path d="M273.068,153.602c4.71,0,8.533-3.823,8.533-8.533V8.535c0-4.71-3.823-8.533-8.533-8.533c-4.71,0-8.533,3.823-8.533,8.533
				v136.533C264.534,149.779,268.357,153.602,273.068,153.602z"/>
			<path d="M307.201,153.602c4.71,0,8.533-3.823,8.533-8.533V8.535c0-4.71-3.823-8.533-8.533-8.533s-8.533,3.823-8.533,8.533
				v136.533C298.668,149.779,302.491,153.602,307.201,153.602z"/>
			<path d="M85.334,0.002c-47.053,0-85.333,45.935-85.333,102.4v34.133c0,34.057,20.335,64.768,51.2,78.225v186.308
				c0,94.174,6.707,110.933,25.6,110.933h17.067c19.208,0,25.6-16.034,25.6-110.933V243.065c0-4.71-3.823-8.533-8.533-8.533
				s-8.533,3.823-8.533,8.533v158.003c0,75.887-4.992,91.435-8.533,93.867l-17.391,0.119c-2.466-2.065-8.209-15.36-8.209-93.986
				v-192.12c0-3.789-2.5-7.006-5.931-8.115c-27.085-9.685-45.269-35.499-45.269-64.299v-34.133
				c0-47.053,30.626-85.333,68.267-85.333c37.641,0,68.267,38.281,68.267,85.333v34.133c0,35.174-26.342,64.367-61.278,67.908
				c-4.685,0.486-8.107,4.668-7.629,9.361c0.469,4.685,4.634,8.107,9.353,7.629c43.682-4.437,76.621-40.934,76.621-84.898v-34.133
				C170.668,45.937,132.387,0.002,85.334,0.002z"/>
			<path d="M421.309,0.608c-2.637-1.05-5.606-0.725-7.962,0.862c-2.338,1.587-3.746,4.233-3.746,7.066v477.867
				c0,14.114,11.486,25.6,25.6,25.6h17.067c14.592,0,25.6-11.008,25.6-25.6v-153.6c0-4.71-3.823-8.533-8.533-8.533
				s-8.533,3.823-8.533,8.533v153.6c0,5.18-3.354,8.533-8.533,8.533h-17.067c-4.702,0-8.533-3.831-8.533-8.533V22.675
				c22.289,13.833,68.267,52.864,68.267,139.46v128h-42.667c-4.71,0-8.533,3.823-8.533,8.533s3.823,8.533,8.533,8.533h51.2
				c4.71,0,8.533-3.823,8.533-8.533V162.135C512.001,38.317,425.004,2.093,421.309,0.608z"/>
			<path d="M315.734,234.669c-4.71,0-8.533,3.823-8.533,8.533v243.2c0,5.18-3.354,8.533-8.533,8.533h-17.067
				c-4.702,0-8.533-3.831-8.533-8.533V207.336c0-3.388-1.997-6.315-4.881-7.689c-13.167-7.04-20.719-20.693-20.719-37.513V8.535
				c0-4.71-3.823-8.533-8.533-8.533s-8.533,3.823-8.533,8.533v153.6c0,21.572,9.259,39.552,25.6,50.125v274.142
				c0,14.114,11.486,25.6,25.6,25.6h17.067c14.592,0,25.6-11.008,25.6-25.6v-243.2C324.268,238.491,320.445,234.669,315.734,234.669
				z"/>
			<path d="M341.334,0.002c-4.71,0-8.533,3.823-8.533,8.533v153.6c0,22.502-13.867,39.04-35.311,42.146
				c-4.668,0.674-7.902,5.001-7.228,9.668c0.614,4.25,4.267,7.313,8.431,7.313c0.41,0,0.828-0.034,1.237-0.094
				c29.867-4.318,49.937-28.041,49.937-59.034V8.535C349.868,3.825,346.045,0.002,341.334,0.002z"/>
		</g>
	</g>
</g>
<g>
</g>
<g>
</g>
<g>
</g>
<g>
</g>
<g>
</g>
<g>
</g>
<g>
</g>
<g>
</g>
<g>
</g>
<g>
</g>
<g>
</g>
<g>
</g>
<g>
</g>
<g>
</g>
<g>
</g>
</svg>
