<svg height="512pt" viewBox="-105 0 512 512.00102" width="512pt" xmlns="http://www.w3.org/2000/svg"><path d="m253.800781 0h-205.214843c-26.789063 0-48.585938 21.792969-48.585938 48.585938v414.832031c0 26.789062 21.796875 48.582031 48.585938 48.582031h205.214843c26.789063 0 48.582031-21.792969 48.582031-48.582031v-414.832031c0-26.792969-21.792968-48.585938-48.582031-48.585938zm-223.222656 48.585938c0-9.929688 8.078125-18.007813 18.007813-18.007813h205.214843c9.925781 0 18.003907 8.078125 18.003907 18.007813v106.582031h-241.226563zm241.226563 414.828124c0 9.929688-8.078126 18.007813-18.003907 18.007813h-205.214843c-9.929688 0-18.007813-8.078125-18.007813-18.007813v-277.667968h241.226563zm0 0"/><path d="m70.949219 57.195312c-8.445313 0-15.289063 6.847657-15.289063 15.289063v40.773437c0 8.445313 6.84375 15.289063 15.289063 15.289063 8.441406 0 15.289062-6.84375 15.289062-15.289063v-40.773437c0-8.441406-6.847656-15.289063-15.289062-15.289063zm0 0"/><path d="m70.949219 278.578125c8.441406 0 15.289062-6.84375 15.289062-15.289063v-40.773437c0-8.445313-6.847656-15.289063-15.289062-15.289063-8.445313 0-15.289063 6.84375-15.289063 15.289063v40.773437c0 8.445313 6.84375 15.289063 15.289063 15.289063zm0 0"/></svg>